<?xml version="1.0" standalone="no"?>
<!DOCTYPE svg PUBLIC "-//W3C//DTD SVG 20010904//EN"
 "http://www.w3.org/TR/2001/REC-SVG-20010904/DTD/svg10.dtd">
<svg version="1.0" xmlns="http://www.w3.org/2000/svg"
 width="1920.000000pt" height="1920.000000pt" viewBox="0 0 1920.000000 1920.000000"
 preserveAspectRatio="xMidYMid meet">
<metadata>
Created by potrace 1.11, written by Peter Selinger 2001-2013
</metadata>
<g transform="translate(0.000000,1920.000000) scale(0.100000,-0.100000)"
fill="#000000" stroke="none">
<path d="M9150 19190 c-1885 -97 -3652 -714 -5170 -1808 -419 -301 -774 -606
-1166 -997 -394 -394 -688 -738 -996 -1165 -2496 -3465 -2413 -8139 204
-11513 392 -505 897 -1029 1398 -1453 927 -782 2057 -1409 3212 -1783 1710
-552 3507 -620 5243 -196 2743 669 5050 2509 6311 5035 1383 2772 1349 6022
-93 8762 -1395 2653 -3961 4507 -6918 4997 -298 50 -626 88 -955 111 -196 14
-866 20 -1070 10z m5970 -4510 c186 -11 386 -34 457 -52 143 -35 167 -277 47
-480 -57 -99 -102 -154 -512 -625 -3831 -4413 -6167 -7342 -6993 -8771 -124
-213 -161 -265 -259 -362 -264 -263 -692 -421 -1265 -469 -484 -40 -759 -14
-1113 104 -202 68 -337 131 -384 178 -120 120 -310 472 -533 992 -558 1299
-820 2261 -876 3220 -18 308 -6 395 74 550 53 102 193 246 322 330 258 169
885 426 1270 520 181 44 291 58 423 53 95 -3 115 -7 174 -35 115 -54 213 -163
296 -329 22 -44 82 -199 132 -345 217 -626 342 -909 449 -1020 36 -37 54 -49
77 -49 43 1 107 33 160 82 50 46 55 53 279 378 1662 2411 3243 4201 4679 5299
392 300 689 480 1027 624 262 112 555 188 829 217 108 11 1009 4 1240 -10z"/>
</g>
</svg>
